<?xml version="1.0" encoding="utf-8"?>
<!-- Generator: Adobe Illustrator 19.1.0, SVG Export Plug-In . SVG Version: 6.00 Build 0)  -->
<!DOCTYPE svg PUBLIC "-//W3C//DTD SVG 1.1//EN" "http://www.w3.org/Graphics/SVG/1.1/DTD/svg11.dtd">
<svg version="1.1" id="Layer_1" xmlns="http://www.w3.org/2000/svg" xmlns:xlink="http://www.w3.org/1999/xlink" x="0px" y="0px"
	 width="500px" height="500px" viewBox="0 0 500 500" enable-background="new 0 0 500 500" xml:space="preserve">
<g id="Layer_1_1_">
	<circle fill="#FFC549" cx="250" cy="250" r="241"/>
</g>
<g id="Layer_3">
</g>
<g>
	<path fill="#FFFFFF" d="M218.9,242c0,0,30.5-2.3,30.5-38c0-35.8-24.9-53.2-56.5-53.2h-58.2H133H88.9v199.8H133h1.7h58.2
		c0,0,63.5,2,63.5-59C256.4,291.6,259.1,242,218.9,242z M134.7,186.3h50.7h7.5c0,0,14.1,0,14.1,20.8s-8.3,23.8-17.7,23.8h-54.6
		V186.3z M190.2,315.1h-55.5v-53.4h58.2c0,0,21.1-0.3,21.1,27.4C213.9,312.2,198.5,314.8,190.2,315.1z"/>
	<g>
		<path fill="#FFFFFF" d="M341,201.6c-76.8,0-76.8,76.8-76.8,76.8s-5.3,76.4,76.8,76.4c0,0,68.4,3.9,68.4-53.1h-35.2
			c0,0,1.2,21.5-32,21.5c0,0-35.2,2.4-35.2-34.8h103.5C410.6,288.3,421.9,201.6,341,201.6z M372.3,261.6h-65.6
			c0,0,4.3-30.8,35.2-30.8C372.7,230.8,372.3,261.6,372.3,261.6z"/>
		<rect x="298" y="162.5" fill="#FFFFFF" width="82.4" height="24.6"/>
	</g>
</g>
</svg>
