<?xml version="1.0" encoding="utf-8"?>
<!-- Generator: Adobe Illustrator 19.1.0, SVG Export Plug-In . SVG Version: 6.00 Build 0)  -->
<!DOCTYPE svg PUBLIC "-//W3C//DTD SVG 1.1//EN" "http://www.w3.org/Graphics/SVG/1.1/DTD/svg11.dtd">
<svg version="1.1" xmlns="http://www.w3.org/2000/svg" xmlns:xlink="http://www.w3.org/1999/xlink" x="0px" y="0px" width="500px"
	 height="500px" viewBox="0 0 500 500" enable-background="new 0 0 500 500" xml:space="preserve">
<g id="Layer_1">
	<circle fill="#FFC549" cx="250" cy="250" r="241"/>
</g>
<g id="Layer_2">
	<g>
		<path fill="#FFFFFF" d="M115.8,229.6v100.7c0,0,9.6,59,68.1,59s134.3,0,134.3,0s65.7-5.3,65.7-64.3s0-95.5,0-95.5h-76.7
			c0,0,23.5,48-31.7,79.9c0,0-41.7,16.5-72.4-17c0,0-24.9-25.9-10.6-62.8H115.8z"/>
		<circle fill="#FFFFFF" cx="250.1" cy="251.2" r="37.9"/>
		<path fill="#FFFFFF" d="M313.9,121.2H186.8v70h-13.9v-70c0,0-13.4,4.3-15.8,5.8v64.8h-13.9v-57.1c0,0-32.1,22.5-27.3,72.9
			c0,0,90.2,0,90.2,0c1.2,0,4.6-3.5,5.6-4.2c4.8-3.3,9.8-6.1,15.1-8.5c22.2-9.7,50-4.5,67.1,12.6h90.2
			C383.9,207.5,396.9,126.4,313.9,121.2z M347.5,184c0,4.7-3.9,8.6-8.6,8.6h-21.1c-4.7,0-8.6-3.9-8.6-8.6v-21.6
			c0-4.7,3.9-8.6,8.6-8.6h21.1c4.7,0,8.6,3.9,8.6,8.6V184z"/>
	</g>
</g>
<g id="Layer_3">
</g>
</svg>
