<?xml version="1.0" encoding="utf-8"?>
<!-- Generator: Adobe Illustrator 19.1.0, SVG Export Plug-In . SVG Version: 6.00 Build 0)  -->
<!DOCTYPE svg PUBLIC "-//W3C//DTD SVG 1.1//EN" "http://www.w3.org/Graphics/SVG/1.1/DTD/svg11.dtd">
<svg version="1.1" id="Layer_1" xmlns="http://www.w3.org/2000/svg" xmlns:xlink="http://www.w3.org/1999/xlink" x="0px" y="0px"
	 width="500px" height="500px" viewBox="0 0 500 500" enable-background="new 0 0 500 500" xml:space="preserve">
<g id="Layer_1_1_">
	<circle fill="#FFC549" cx="250" cy="250" r="241"/>
</g>
<path fill="#FFFFFF" d="M401,156.3c-11.1,4.9-23.1,8.3-35.6,9.8c12.8-7.7,22.6-19.8,27.2-34.3c-12,7.1-25.2,12.3-39.3,15
	c-11.3-12-27.4-19.6-45.2-19.6c-34.2,0-62,27.7-62,62c0,4.9,0.5,9.6,1.6,14.1c-51.5-2.6-97.1-27.3-127.7-64.7
	c-5.3,9.2-8.4,19.8-8.4,31.1c0,21.5,10.9,40.5,27.6,51.6c-10.2-0.3-19.7-3.1-28.1-7.7c0,0.3,0,0.5,0,0.8c0,30,21.4,55.1,49.7,60.8
	c-5.2,1.4-10.7,2.2-16.3,2.2c-4,0-7.9-0.4-11.7-1.1c7.9,24.6,30.8,42.5,57.9,43c-21.2,16.6-47.9,26.5-76.9,26.5
	c-5,0-9.9-0.3-14.8-0.9c27.4,17.6,60,27.8,95,27.8c114,0,176.3-94.4,176.3-176.3c0-2.7-0.1-5.4-0.2-8
	C382.2,179.7,392.7,168.8,401,156.3z"/>
</svg>
